<svg width="156" height="36" viewBox="0 0 156 36" fill="none" xmlns="http://www.w3.org/2000/svg">
<path d="M44.0391 10.9561H47.9538V26.8205H44.0391V10.9561ZM49.5442 20.8408C49.5442 16.9357 51.9909 14.6171 55.661 14.6171C59.3311 14.6171 61.7778 16.9357 61.7778 20.8408C61.7778 24.7459 59.4534 27.1866 55.661 27.1866C51.8686 27.1866 49.5442 24.8679 49.5442 20.8408ZM57.8631 20.8408C57.8631 18.6442 57.0067 17.4239 55.661 17.4239C54.3153 17.4239 53.459 18.6442 53.459 20.8408C53.459 23.0374 54.3153 24.2577 55.661 24.2577C57.0067 24.2577 57.8631 23.1594 57.8631 20.8408ZM63.3682 27.6747H67.1606C67.2829 28.0408 67.65 28.4069 68.017 28.651C68.384 28.895 68.8733 29.0171 69.2403 28.895C70.7084 28.895 71.5647 28.0408 71.5647 26.9425V24.7459C71.1977 25.4781 70.7084 25.9662 70.0967 26.3323C69.485 26.6984 68.6286 26.9425 67.8946 26.8205C65.0809 26.8205 63.1235 24.6239 63.1235 20.8408C63.1235 17.0578 64.9586 14.7391 68.017 14.7391C68.751 14.7391 69.6073 14.8611 70.219 15.3493C70.8307 15.7154 71.4424 16.3255 71.687 17.0577H71.5647V14.8611H75.4795V26.8205C75.4795 29.7493 72.9104 31.4577 69.2403 31.4577C65.6926 31.4577 63.6129 29.8713 63.3682 27.6747ZM71.5647 20.8408C71.5647 18.8883 70.7084 17.6679 69.2403 17.6679C67.7723 17.6679 67.0383 18.8883 67.0383 20.8408C67.0383 22.7933 67.8946 23.8916 69.2403 23.8916C70.7084 23.8916 71.5647 22.9154 71.5647 20.8408ZM76.9475 20.8408C76.9475 16.9357 79.3942 14.6171 83.0643 14.6171C86.7344 14.6171 89.1811 16.9357 89.1811 20.8408C89.1811 24.7459 86.8567 27.1866 83.0643 27.1866C79.3942 27.1866 76.9475 24.8679 76.9475 20.8408ZM85.2664 20.8408C85.2664 18.6442 84.41 17.4239 83.0643 17.4239C81.7186 17.4239 80.8623 18.6442 80.8623 20.8408C80.8623 23.0374 81.7186 24.2577 83.0643 24.2577C84.5324 24.2577 85.3887 23.1594 85.2664 20.8408ZM90.7715 12.0544C90.7715 11.6883 90.8938 11.2001 91.0162 10.9561C91.2608 10.59 91.5055 10.3459 91.8725 10.2239C92.2395 10.1018 92.6065 9.97978 93.0959 10.1018C93.4629 10.2239 93.8299 10.3459 94.1969 10.59C94.4416 10.834 94.6863 11.2001 94.8086 11.5662C94.9309 11.9323 94.8086 12.4205 94.6863 12.7866C94.5639 13.1527 94.3193 13.5188 93.9522 13.6408C93.5852 13.8849 93.2182 14.0069 92.8512 14.0069C92.6065 14.0069 92.3619 14.0069 92.1172 13.8849C91.8725 13.7628 91.6279 13.6408 91.5055 13.5188C91.2609 13.3967 91.1385 13.1527 91.0162 12.9086C90.8938 12.5425 90.8938 12.2984 90.7715 12.0544ZM90.7715 14.8611H94.6863V26.9425H90.7715V14.8611ZM109.122 20.8408C109.122 24.7459 107.409 27.0645 104.351 27.0645C103.617 27.0645 102.76 26.9425 102.149 26.5764C101.537 26.2103 100.925 25.6001 100.681 24.8679H100.558V30.8476H96.6436V14.9832H100.558V17.0577H100.681C100.925 16.3255 101.537 15.7154 102.149 15.3493C102.76 14.9832 103.617 14.7391 104.351 14.7391C107.409 14.7391 109.122 16.9357 109.122 20.8408ZM105.085 20.8408C105.085 18.8883 104.228 17.6679 102.76 17.6679C101.415 17.6679 100.558 18.8883 100.558 20.8408C100.558 22.7933 101.415 24.0137 102.76 24.0137C104.228 24.0137 105.207 22.9154 105.085 20.8408ZM115.728 14.6171C119.031 14.6171 121.111 16.2035 121.111 18.6442H117.563C117.563 17.79 116.829 17.3018 115.728 17.3018C114.627 17.3018 114.138 17.6679 114.138 18.2781C114.138 18.8883 114.627 19.1323 115.483 19.2544L118.052 19.7425C120.499 20.2306 121.478 21.2069 121.478 23.0374C121.478 25.4781 119.276 27.1866 115.85 27.1866C112.425 27.1866 110.345 25.6001 110.101 23.1594H113.893C114.015 24.0137 114.749 24.6239 115.85 24.6239C116.951 24.6239 117.563 24.2577 117.563 23.6476C117.563 23.0374 117.196 22.9154 116.217 22.6713L113.893 22.1832C111.569 21.695 110.345 20.4747 110.345 18.6442C110.468 16.0815 112.547 14.6171 115.728 14.6171ZM134.568 26.9425H130.775V24.6239H130.653C130.408 25.3561 129.919 26.0883 129.307 26.4544C128.696 26.9425 127.839 27.1866 127.105 27.0645C126.494 27.0645 125.882 26.9425 125.393 26.6984C124.903 26.4544 124.292 26.0883 123.925 25.7222C123.558 25.234 123.191 24.7459 122.946 24.2577C122.701 23.6476 122.701 23.1594 122.701 22.5493V14.8611H126.616V21.695C126.616 23.1594 127.35 23.8916 128.573 23.8916C128.818 23.8916 129.185 23.7696 129.43 23.6476C129.674 23.5255 129.919 23.4035 130.164 23.1594C130.408 22.9154 130.531 22.6713 130.531 22.4272C130.653 22.1832 130.653 21.8171 130.531 21.573V14.8611H134.446L134.568 26.9425ZM136.525 14.8611H140.318V17.1798H140.44C140.685 16.4476 141.052 15.8374 141.786 15.3493C142.397 14.8611 143.131 14.6171 143.988 14.6171C144.722 14.495 145.578 14.7391 146.19 15.2272C146.801 15.7154 147.291 16.3255 147.413 17.1798H147.536C147.78 16.4476 148.27 15.7154 148.881 15.2272C149.493 14.7391 150.349 14.495 151.206 14.6171C151.695 14.6171 152.307 14.7391 152.796 14.8611C153.285 15.1052 153.775 15.3493 154.142 15.7154C154.509 16.0815 154.753 16.5696 154.998 17.0577C155.243 17.5459 155.243 18.1561 155.243 18.6442V26.8205H151.328V19.6205C151.328 18.4001 150.716 17.6679 149.615 17.6679C149.371 17.6679 149.126 17.6679 148.881 17.79C148.637 17.912 148.514 18.034 148.27 18.2781C148.147 18.5222 148.025 18.6442 147.903 18.8883C147.78 19.1323 147.78 19.3764 147.903 19.6205V26.6984H144.11V19.4984C144.11 18.2781 143.498 17.6679 142.397 17.6679C142.153 17.6679 141.908 17.6679 141.663 17.79C141.419 17.912 141.174 18.034 141.052 18.2781C140.929 18.5222 140.807 18.6442 140.685 18.8883C140.562 19.1323 140.562 19.3764 140.562 19.6205V26.6984H136.648L136.525 14.8611Z" fill="#667085"/>
<path d="M36.2115 12.0542C36.2115 9.61352 35.4775 7.29488 34.1318 5.2203C32.7861 3.14572 30.8287 1.68132 28.5043 0.82708C26.18 -0.0271573 23.7332 -0.271225 21.4088 0.338944C19.0845 0.949114 16.8824 2.16945 15.292 3.87793H0V35.9728H32.1744V20.9627C33.3978 19.8644 34.4988 18.4 35.1105 16.9356C35.7222 15.4711 36.2115 13.7627 36.2115 12.0542ZM30.0947 12.0542C30.0947 13.2745 29.7277 14.3728 29.116 15.3491C28.5043 16.3254 27.5257 17.0576 26.4246 17.5457C25.3236 18.0339 24.1002 18.1559 22.9992 17.9118C21.8982 17.6678 20.7972 17.1796 19.9408 16.3254C19.0845 15.4711 18.5951 14.4949 18.3504 13.2745C18.1058 12.1762 18.2281 10.9559 18.7174 9.85759C19.2068 8.75928 19.9408 7.90505 20.9195 7.17284C21.8982 6.56267 22.9992 6.19657 24.2226 6.19657C25.8129 6.19657 27.281 6.80674 28.382 7.90505C29.483 9.00335 30.0947 10.4678 30.0947 12.0542ZM26.0576 29.8711H6.23915V10.1017H12.2336C12.1113 10.7118 12.1113 11.322 12.1113 12.0542C12.1113 15.2271 13.3347 18.2779 15.659 20.5966C17.9834 22.9152 21.0418 24.1356 24.2226 24.1356C24.8343 24.1356 25.4459 24.1356 26.0576 24.0135V29.8711Z" fill="#667085"/>
</svg>
