<?xml version="1.0" encoding="utf-8"?>
<!-- Generator: Adobe Illustrator 27.7.0, SVG Export Plug-In . SVG Version: 6.00 Build 0)  -->
<svg version="1.1" id="Layer_1" xmlns="http://www.w3.org/2000/svg" xmlns:xlink="http://www.w3.org/1999/xlink" x="0px" y="0px"
	 viewBox="0 0 156 36" style="enable-background:new 0 0 156 36;" xml:space="preserve">
<style type="text/css">
	.st0{fill:#FFFFFF;}
</style>
<path class="st0" d="M44,11H48v15.9H44V11z M49.5,20.8c0-3.9,2.4-6.2,6.1-6.2s6.1,2.3,6.1,6.2s-2.3,6.3-6.1,6.3S49.5,24.9,49.5,20.8
	z M57.9,20.8c0-2.2-0.9-3.4-2.2-3.4s-2.2,1.2-2.2,3.4s0.9,3.4,2.2,3.4S57.9,23.2,57.9,20.8z M63.4,27.7h3.8c0.1,0.4,0.5,0.7,0.9,1
	c0.4,0.2,0.9,0.4,1.2,0.2c1.5,0,2.3-0.9,2.3-2v-2.2c-0.4,0.7-0.9,1.2-1.5,1.6c-0.6,0.4-1.5,0.6-2.2,0.5c-2.8,0-4.8-2.2-4.8-6
	c0-3.8,1.8-6.1,4.9-6.1c0.7,0,1.6,0.1,2.2,0.6c0.6,0.4,1.2,1,1.5,1.7h-0.1v-2.2h3.9v12c0,2.9-2.6,4.6-6.2,4.6
	C65.7,31.5,63.6,29.9,63.4,27.7z M71.6,20.8c0-2-0.9-3.2-2.3-3.2c-1.5,0-2.2,1.2-2.2,3.2s0.9,3.1,2.2,3.1
	C70.7,23.9,71.6,22.9,71.6,20.8z M76.9,20.8c0-3.9,2.4-6.2,6.1-6.2s6.1,2.3,6.1,6.2s-2.3,6.3-6.1,6.3C79.4,27.2,76.9,24.9,76.9,20.8
	z M85.3,20.8c0-2.2-0.9-3.4-2.2-3.4s-2.2,1.2-2.2,3.4s0.9,3.4,2.2,3.4C84.5,24.3,85.4,23.2,85.3,20.8z M90.8,12.1
	c0-0.4,0.1-0.9,0.2-1.1c0.2-0.4,0.5-0.6,0.9-0.7c0.4-0.1,0.7-0.2,1.2-0.1c0.4,0.1,0.7,0.2,1.1,0.5c0.2,0.2,0.5,0.6,0.6,1
	c0.1,0.4,0,0.9-0.1,1.2c-0.1,0.4-0.4,0.7-0.7,0.9c-0.4,0.2-0.7,0.4-1.1,0.4c-0.2,0-0.5,0-0.7-0.1c-0.2-0.1-0.5-0.2-0.6-0.4
	c-0.2-0.1-0.4-0.4-0.5-0.6C90.9,12.5,90.9,12.3,90.8,12.1z M90.8,14.9h3.9v12.1h-3.9V14.9z M109.1,20.8c0,3.9-1.7,6.2-4.8,6.2
	c-0.7,0-1.6-0.1-2.2-0.5c-0.6-0.4-1.2-1-1.5-1.7h-0.1v6h-3.9V15h3.9v2.1h0.1c0.2-0.7,0.9-1.3,1.5-1.7c0.6-0.4,1.5-0.6,2.2-0.6
	C107.4,14.7,109.1,16.9,109.1,20.8z M105.1,20.8c0-2-0.9-3.2-2.3-3.2c-1.3,0-2.2,1.2-2.2,3.2s0.9,3.2,2.2,3.2
	C104.2,24,105.2,22.9,105.1,20.8z M115.7,14.6c3.3,0,5.4,1.6,5.4,4h-3.5c0-0.9-0.7-1.3-1.8-1.3c-1.1,0-1.6,0.4-1.6,1
	c0,0.6,0.5,0.9,1.3,1l2.6,0.5c2.4,0.5,3.4,1.5,3.4,3.3c0,2.4-2.2,4.1-5.6,4.1c-3.4,0-5.5-1.6-5.7-4h3.8c0.1,0.9,0.9,1.5,2,1.5
	s1.7-0.4,1.7-1c0-0.6-0.4-0.7-1.3-1l-2.3-0.5c-2.3-0.5-3.5-1.7-3.5-3.5C110.5,16.1,112.5,14.6,115.7,14.6z M134.6,26.9h-3.8v-2.3
	h-0.1c-0.2,0.7-0.7,1.5-1.3,1.8c-0.6,0.5-1.5,0.7-2.2,0.6c-0.6,0-1.2-0.1-1.7-0.4c-0.5-0.2-1.1-0.6-1.5-1c-0.4-0.5-0.7-1-1-1.5
	c-0.2-0.6-0.2-1.1-0.2-1.7v-7.7h3.9v6.8c0,1.5,0.7,2.2,2,2.2c0.2,0,0.6-0.1,0.9-0.2c0.2-0.1,0.5-0.2,0.7-0.5
	c0.2-0.2,0.4-0.5,0.4-0.7c0.1-0.2,0.1-0.6,0-0.9v-6.7h3.9L134.6,26.9z M136.5,14.9h3.8v2.3h0.1c0.2-0.7,0.6-1.3,1.3-1.8
	c0.6-0.5,1.3-0.7,2.2-0.7c0.7-0.1,1.6,0.1,2.2,0.6c0.6,0.5,1.1,1.1,1.2,2h0.1c0.2-0.7,0.7-1.5,1.3-2c0.6-0.5,1.5-0.7,2.3-0.6
	c0.5,0,1.1,0.1,1.6,0.2c0.5,0.2,1,0.5,1.3,0.9s0.6,0.9,0.9,1.3c0.2,0.5,0.2,1.1,0.2,1.6v8.2h-3.9v-7.2c0-1.2-0.6-2-1.7-2
	c-0.2,0-0.5,0-0.7,0.1c-0.2,0.1-0.4,0.2-0.6,0.5c-0.1,0.2-0.2,0.4-0.4,0.6c-0.1,0.2-0.1,0.5,0,0.7v7.1h-3.8v-7.2
	c0-1.2-0.6-1.8-1.7-1.8c-0.2,0-0.5,0-0.7,0.1c-0.2,0.1-0.5,0.2-0.6,0.5c-0.1,0.2-0.2,0.4-0.4,0.6c-0.1,0.2-0.1,0.5-0.1,0.7v7.1h-3.9
	L136.5,14.9z"/>
<path class="st0" d="M36.2,12.1c0-2.4-0.7-4.8-2.1-6.8c-1.3-2.1-3.3-3.5-5.6-4.4c-2.3-0.9-4.8-1.1-7.1-0.5c-2.3,0.6-4.5,1.8-6.1,3.5
	H0V36h32.2V21c1.2-1.1,2.3-2.6,2.9-4C35.7,15.5,36.2,13.8,36.2,12.1z M30.1,12.1c0,1.2-0.4,2.3-1,3.3s-1.6,1.7-2.7,2.2
	c-1.1,0.5-2.3,0.6-3.4,0.4c-1.1-0.2-2.2-0.7-3.1-1.6c-0.9-0.9-1.3-1.8-1.6-3.1c-0.2-1.1-0.1-2.3,0.4-3.4c0.5-1.1,1.2-2,2.2-2.7
	c1-0.6,2.1-1,3.3-1c1.6,0,3.1,0.6,4.2,1.7C29.5,9,30.1,10.5,30.1,12.1z M26.1,29.9H6.2V10.1h6c-0.1,0.6-0.1,1.2-0.1,2
	c0,3.2,1.2,6.2,3.5,8.5c2.3,2.3,5.4,3.5,8.6,3.5c0.6,0,1.2,0,1.8-0.1V29.9z"/>
</svg>
